<svg width="320" height="320" viewBox="0 0 320 320" fill="none" xmlns="http://www.w3.org/2000/svg">
<rect width="320" height="320" fill="#DB2B39"/>
<path d="M67 117C67 105.954 75.9543 97 87 97H92V122H67V117Z" fill="#EFF1F3"/>
<path d="M92 92C92 80.9543 100.954 72 112 72H117V97H92V92Z" fill="#EFF1F3"/>
<path d="M117 72H129.5C136.404 72 142 77.5964 142 84.5C142 91.4036 136.404 97 129.5 97H117V72Z" fill="#EFF1F3"/>
<path d="M116.219 222H128.719C135.622 222 141.219 227.596 141.219 234.5C141.219 241.404 135.622 247 128.719 247H116.219V222Z" fill="#EFF1F3"/>
<path d="M91.2188 222H116.219V247H111.219C100.173 247 91.2188 238.046 91.2188 227V222Z" fill="#EFF1F3"/>
<path d="M66.2188 197H91.2188V222H86.2188C75.1731 222 66.2188 213.046 66.2188 202V197Z" fill="#EFF1F3"/>
<rect x="42" y="147" width="25" height="25" rx="12.5" fill="#EFF1F3"/>
<path d="M67 122H92V127C92 138.046 83.0457 147 72 147H67V122Z" fill="#EFF1F3"/>
<path d="M66.2188 172H71.2188C82.2644 172 91.2188 180.954 91.2188 192V197H66.2188V172Z" fill="#EFF1F3"/>
<path d="M252 202C252 213.046 243.046 222 232 222H227V197H252V202Z" fill="#EFF1F3"/>
<path d="M227 227C227 238.046 218.046 247 207 247H202V222H227V227Z" fill="#EFF1F3"/>
<path d="M202 247H189.5C182.596 247 177 241.404 177 234.5C177 227.596 182.596 222 189.5 222H202V247Z" fill="#EFF1F3"/>
<path d="M202.781 97H190.281C183.378 97 177.781 91.4036 177.781 84.5C177.781 77.5964 183.378 72 190.281 72H202.781V97Z" fill="#EFF1F3"/>
<path d="M227.781 97H202.781V72H207.781C218.827 72 227.781 80.9543 227.781 92V97Z" fill="#EFF1F3"/>
<path d="M252.781 122H227.781V97H232.781C243.827 97 252.781 105.954 252.781 117V122Z" fill="#EFF1F3"/>
<rect x="277" y="172" width="25" height="25" rx="12.5" transform="rotate(-180 277 172)" fill="#EFF1F3"/>
<path d="M252 197H227V192C227 180.954 235.954 172 247 172H252V197Z" fill="#EFF1F3"/>
<path d="M252.781 147H247.781C236.736 147 227.781 138.046 227.781 127V122H252.781V147Z" fill="#EFF1F3"/>
</svg>
