<svg width="235" height="175" viewBox="0 0 235 175" fill="none" xmlns="http://www.w3.org/2000/svg">
<path d="M25 45C25 33.9543 33.9543 25 45 25H50V50H25V45Z" fill="white"/>
<path d="M50 20C50 8.95431 58.9543 0 70 0H75V25H50V20Z" fill="white"/>
<path d="M75 0H87.5C94.4036 0 100 5.59644 100 12.5C100 19.4036 94.4036 25 87.5 25H75V0Z" fill="white"/>
<path d="M74.2188 150H86.7188C93.6223 150 99.2188 155.596 99.2188 162.5C99.2188 169.404 93.6223 175 86.7188 175H74.2188V150Z" fill="white"/>
<path d="M49.2188 150H74.2188V175H69.2188C58.1731 175 49.2188 166.046 49.2188 155V150Z" fill="white"/>
<path d="M24.2188 125H49.2188V150H44.2188C33.1731 150 24.2188 141.046 24.2188 130V125Z" fill="white"/>
<rect y="75" width="25" height="25" rx="12.5" fill="white"/>
<path d="M25 50H50V55C50 66.0457 41.0457 75 30 75H25V50Z" fill="white"/>
<path d="M24.2188 100H29.2188C40.2644 100 49.2188 108.954 49.2188 120V125H24.2188V100Z" fill="white"/>
<path d="M210 130C210 141.046 201.046 150 190 150H185V125H210V130Z" fill="white"/>
<path d="M185 155C185 166.046 176.046 175 165 175H160V150H185V155Z" fill="white"/>
<path d="M160 175H147.5C140.596 175 135 169.404 135 162.5C135 155.596 140.596 150 147.5 150H160V175Z" fill="white"/>
<path d="M160.781 25H148.281C141.378 25 135.781 19.4036 135.781 12.5C135.781 5.59644 141.378 0 148.281 0H160.781V25Z" fill="white"/>
<path d="M185.781 25L160.781 25V0H165.781C176.827 0 185.781 8.95431 185.781 20V25Z" fill="white"/>
<path d="M210.781 50H185.781V25H190.781C201.827 25 210.781 33.9543 210.781 45V50Z" fill="white"/>
<rect x="235" y="100" width="25" height="25" rx="12.5" transform="rotate(-180 235 100)" fill="white"/>
<path d="M210 125H185V120C185 108.954 193.954 100 205 100H210V125Z" fill="white"/>
<path d="M210.781 75H205.781C194.736 75 185.781 66.0457 185.781 55V50H210.781V75Z" fill="white"/>
</svg>
