<svg width="1180" height="366" viewBox="0 0 1180 366" fill="none" xmlns="http://www.w3.org/2000/svg">
<path d="M118.091 298.119C118.091 299.303 117.746 299.895 117.054 299.895C116.75 299.895 116.023 299.438 114.875 298.523C113.726 297.609 112.771 296.977 112.009 296.625C111.248 296.262 110.375 296.08 109.39 296.08C109.367 296.08 109.349 296.08 109.337 296.08C108.388 296.08 107.48 296.332 106.613 296.836C104.175 298.254 102.957 301.301 102.957 305.977C102.957 307.312 103.168 308.613 103.589 309.879C104.82 313.617 107.175 315.486 110.656 315.486C110.668 315.486 110.679 315.486 110.691 315.486C112.285 315.486 113.937 314.889 115.648 313.693C116.75 312.932 117.382 312.551 117.546 312.551C118.121 312.551 118.408 312.82 118.408 313.359V313.799C118.408 314.068 118.132 314.613 117.582 315.434C117.043 316.254 116.316 316.875 115.402 317.297C113.808 318.035 111.933 318.404 109.777 318.404H109.179C107.457 318.404 105.875 318.088 104.433 317.455C101.562 316.189 99.5699 314.098 98.4566 311.18C97.8589 309.621 97.5601 308.104 97.5601 306.627V305.396C97.5601 303.932 97.8472 302.438 98.4214 300.914C99.605 297.762 101.632 295.564 104.503 294.322C106.015 293.666 107.509 293.338 108.986 293.338H109.566C113.269 293.338 115.718 293.689 116.914 294.393C117.699 294.85 118.091 296.092 118.091 298.119ZM141.715 296.678C141.715 297.463 141.604 297.979 141.381 298.225C141.158 298.459 140.818 298.576 140.361 298.576L140.045 298.418L139.676 298.172L139.254 297.926C138.844 297.691 138.053 297.369 136.881 296.959C135.721 296.549 134.637 296.344 133.629 296.344C132.621 296.344 131.883 296.707 131.414 297.434C130.957 298.16 130.729 299.654 130.729 301.916C130.729 302.561 130.928 303.076 131.326 303.463C131.725 303.85 132.275 304.043 132.979 304.043C133.682 304.043 134.455 303.797 135.299 303.305C136.154 302.812 136.758 302.566 137.109 302.566C137.473 302.566 137.789 302.807 138.059 303.287C138.328 303.756 138.463 304.318 138.463 304.975C138.463 306.744 138.27 307.834 137.883 308.244L137.408 308.508C136.717 308.508 136.166 308.35 135.756 308.033C134.854 307.342 134.191 306.996 133.77 306.996C132.434 306.996 131.537 307.277 131.08 307.84C130.858 308.121 130.746 309.088 130.746 310.74C130.746 312.381 131.08 313.629 131.748 314.484C132.1 314.941 132.873 315.17 134.068 315.17C135.264 315.17 136.787 314.766 138.639 313.957C140.502 313.137 141.568 312.727 141.838 312.727C142.342 312.727 142.594 313.201 142.594 314.15V314.783C142.594 315.111 142.477 315.568 142.242 316.154C142.008 316.74 141.645 317.197 141.152 317.525C140.66 317.854 139.852 318.018 138.727 318.018H125.983C124.037 318.018 123.065 317.766 123.065 317.262V316.699C123.065 316.301 123.422 315.902 124.137 315.504C124.863 315.105 125.285 314.678 125.402 314.221C125.531 313.752 125.596 311.057 125.596 306.135C125.596 301.213 125.514 298.424 125.35 297.768C125.186 297.111 124.775 296.508 124.119 295.957C123.463 295.406 123.135 294.861 123.135 294.322C123.135 293.936 123.557 293.719 124.4 293.672C125.244 293.613 128.016 293.584 132.715 293.584L137.285 293.566H138.024C139.207 293.566 140.039 293.736 140.52 294.076C141.316 294.639 141.715 295.506 141.715 296.678ZM168.977 312.375C168.954 313.043 168.942 313.992 168.942 315.223C168.942 316.441 168.866 317.162 168.714 317.385C168.573 317.596 168.204 317.701 167.606 317.701C167.407 317.701 166.909 317.484 166.112 317.051C165.315 316.605 164.594 315.984 163.95 315.188C163.68 314.859 161.946 312.357 158.747 307.682C155.548 303.006 153.661 300.668 153.087 300.668C152.852 300.668 152.735 302.262 152.735 305.449C152.735 308.625 152.964 311.484 153.421 314.027C153.549 314.742 153.772 315.322 154.089 315.768C154.417 316.213 154.581 316.582 154.581 316.875L154.44 317.279C154.1 317.678 152.975 317.877 151.065 317.877H150.309C148.798 317.877 147.901 317.766 147.62 317.543C147.339 317.32 147.198 316.986 147.198 316.541C147.198 316.295 147.52 315.979 148.165 315.592C148.821 315.193 149.214 314.801 149.342 314.414C149.413 314.203 149.448 313.16 149.448 311.285L149.483 310.441L149.536 307.91C149.571 306.234 149.589 304.33 149.589 302.197C149.589 300.053 149.507 298.711 149.342 298.172C149.19 297.621 148.762 297.088 148.059 296.572C147.356 296.045 147.005 295.57 147.005 295.148C147.005 294.715 147.169 294.387 147.497 294.164C147.837 293.93 148.487 293.812 149.448 293.812H150.239C152.137 293.812 153.825 294.615 155.301 296.221C156.778 297.826 158.747 300.422 161.208 304.008C163.68 307.594 165.104 309.387 165.479 309.387C165.924 309.387 166.147 307.078 166.147 302.461C166.147 299.027 165.766 296.865 165.005 295.975C164.571 295.459 164.354 295.102 164.354 294.902C164.354 294.375 164.887 294.111 165.954 294.111C168.087 294.111 169.551 294.205 170.348 294.393C171.157 294.568 171.561 294.943 171.561 295.518C171.561 295.857 171.21 296.385 170.507 297.1C169.815 297.803 169.434 298.301 169.364 298.594C169.294 298.875 169.258 300.234 169.258 302.672L169.03 310.828L169.012 311.602L168.977 312.375ZM181.72 296.344C180.747 296.344 179.722 296.789 178.644 297.68C176.921 299.109 176.013 299.824 175.919 299.824C175.31 299.824 175.005 299.443 175.005 298.682V298.137C175.005 296.871 175.111 295.729 175.322 294.709C175.427 294.182 175.661 293.865 176.025 293.76C176.4 293.654 179.927 293.602 186.607 293.602L193.198 293.566H194.359C195.624 293.566 196.374 293.771 196.609 294.182C196.855 294.592 196.978 295.488 196.978 296.871V297.996C196.978 299.238 196.691 299.859 196.116 299.859C195.613 299.859 195.003 299.455 194.288 298.646C193.573 297.838 192.917 297.258 192.32 296.906C191.722 296.543 190.937 296.361 189.964 296.361C189.191 296.361 188.739 296.871 188.611 297.891C188.564 298.242 188.54 300.861 188.54 305.748C188.54 310.623 188.605 313.324 188.734 313.852C188.863 314.379 189.343 314.947 190.175 315.557C191.007 316.154 191.423 316.664 191.423 317.086C191.423 317.496 191.212 317.754 190.79 317.859C190.368 317.965 189.003 318.018 186.695 318.018H183.741C182.581 318.018 181.784 317.977 181.351 317.895C180.929 317.812 180.718 317.578 180.718 317.191C180.718 316.805 181.116 316.254 181.913 315.539C182.71 314.824 183.179 314.203 183.32 313.676C183.46 313.137 183.53 310.477 183.53 305.695C183.53 300.914 183.484 298.283 183.39 297.803C183.296 297.311 183.132 296.947 182.898 296.713C182.675 296.467 182.282 296.344 181.72 296.344ZM210.441 295.975H209.896C209.099 295.975 208.613 296.086 208.437 296.309C208.273 296.52 208.191 297.082 208.191 297.996V304.377C208.191 304.846 208.291 305.18 208.49 305.379C208.689 305.578 209.129 305.678 209.808 305.678H210.494L210.635 305.66L211.039 305.643C211.133 305.631 211.22 305.625 211.303 305.625C212.135 305.625 212.943 305.232 213.728 304.447C214.525 303.65 214.924 302.613 214.924 301.336V300.492C214.924 299.227 214.525 298.16 213.728 297.293C212.931 296.414 211.836 295.975 210.441 295.975ZM209.615 293.637H210.81C213.81 293.637 216.154 294.211 217.842 295.359C219.529 296.508 220.373 298.125 220.373 300.211C220.373 301.395 220.127 302.432 219.635 303.322C219.142 304.213 218.644 304.887 218.14 305.344C216.992 306.387 216.418 306.955 216.418 307.049C216.418 307.482 216.629 308.057 217.051 308.771C217.484 309.486 217.976 310.342 218.527 311.338C219.078 312.334 219.47 312.99 219.705 313.307C220.314 314.127 220.976 314.695 221.691 315.012C222.969 315.562 223.607 315.973 223.607 316.242C223.607 316.992 223.291 317.461 222.658 317.648C221.756 317.918 220.701 318.053 219.494 318.053C218.287 318.053 217.314 317.678 216.576 316.928C215.838 316.166 214.982 314.777 214.01 312.762C213.037 310.734 212.41 309.545 212.129 309.193C211.543 308.432 210.775 308.051 209.826 308.051C209.31 308.051 208.959 308.309 208.771 308.824C208.595 309.328 208.508 310.594 208.508 312.621C208.508 313.113 208.76 313.887 209.263 314.941L209.914 316.119C210.23 316.705 210.388 317.033 210.388 317.104C210.388 317.713 209.433 318.018 207.523 318.018C204.195 318.018 202.244 317.936 201.67 317.771C201.107 317.607 200.826 317.279 200.826 316.787C200.826 316.295 201.183 315.832 201.898 315.398C202.613 314.965 203.047 314.455 203.199 313.869C203.351 313.271 203.428 310.699 203.428 306.152C203.428 301.594 203.34 298.922 203.164 298.137C202.988 297.352 202.672 296.736 202.215 296.291C201.394 295.494 200.984 294.984 200.984 294.762C200.984 294.293 201.47 293.988 202.443 293.848C203.428 293.707 205.818 293.637 209.615 293.637ZM244.893 306.768V305.59C244.893 304.395 244.735 303.141 244.418 301.828C243.785 299.215 242.672 297.404 241.078 296.396C240.364 295.951 239.543 295.729 238.618 295.729H238.354C237.592 295.729 236.813 295.957 236.016 296.414C234.469 297.305 233.409 298.875 232.834 301.125C232.471 302.531 232.289 303.932 232.289 305.326V305.924C232.289 307.295 232.465 308.648 232.817 309.984C233.52 312.621 234.727 314.449 236.438 315.469C237.141 315.891 237.868 316.102 238.618 316.102H239.145C239.942 316.102 240.709 315.873 241.448 315.416C242.186 314.947 242.789 314.32 243.258 313.535C244.348 311.719 244.893 309.463 244.893 306.768ZM227.227 306.012C227.227 304.137 227.514 302.402 228.088 300.809C229.201 297.691 231.153 295.529 233.942 294.322C235.559 293.619 237.211 293.268 238.899 293.268L239.321 293.285H239.725C241.084 293.285 242.496 293.596 243.961 294.217C245.426 294.838 246.674 295.723 247.705 296.871C248.748 298.008 249.539 299.338 250.078 300.861C250.618 302.373 250.887 303.908 250.887 305.467V305.871C250.887 307.641 250.588 309.334 249.991 310.951C249.405 312.557 248.555 313.934 247.442 315.082C245.192 317.414 242.209 318.586 238.494 318.598C236.971 318.598 235.5 318.311 234.082 317.736C232.676 317.15 231.498 316.336 230.549 315.293C228.334 312.832 227.227 309.738 227.227 306.012ZM273.261 307.383V307.559C273.261 307.699 273.806 307.77 274.896 307.77H276.917C278.523 307.77 279.326 307.676 279.326 307.488C279.326 306.984 278.828 305.438 277.831 302.848C276.835 300.258 276.32 298.963 276.285 298.963C276.261 298.963 275.751 300.264 274.755 302.865C273.759 305.455 273.261 306.961 273.261 307.383ZM276.724 293.566H277.234C278.101 293.566 279.074 294.492 280.152 296.344C280.527 296.988 281.089 298.324 281.839 300.352C282.589 302.379 283.234 304.061 283.773 305.396C284.312 306.732 284.898 308.326 285.531 310.178C286.175 312.018 286.638 313.242 286.919 313.852C287.212 314.449 287.728 315.023 288.466 315.574C289.205 316.125 289.574 316.605 289.574 317.016C289.574 317.414 289.322 317.678 288.818 317.807C287.997 318.006 285.964 318.105 282.718 318.105C281.242 318.105 280.503 317.789 280.503 317.156C280.503 316.992 280.621 316.594 280.855 315.961C281.089 315.316 281.206 314.842 281.206 314.537C281.206 313.096 280.861 311.883 280.169 310.898C279.888 310.5 279.003 310.301 277.515 310.301C274.785 310.301 273.238 310.389 272.874 310.564C272.523 310.74 272.16 311.186 271.785 311.9C271.421 312.615 271.24 313.277 271.24 313.887C271.24 314.496 271.404 315.152 271.732 315.855C272.072 316.559 272.242 317.109 272.242 317.508C272.242 318 271.714 318.246 270.66 318.246C268.152 318.246 266.476 318.129 265.632 317.895C265.093 317.742 264.824 317.361 264.824 316.752C264.824 316.67 265.357 316.16 266.423 315.223C267.009 314.707 267.478 314.033 267.83 313.201C270.361 307.166 271.966 302.795 272.646 300.088C273.337 297.369 273.923 295.605 274.404 294.797C274.884 293.977 275.658 293.566 276.724 293.566ZM313.479 298.119C313.479 299.303 313.133 299.895 312.441 299.895C312.137 299.895 311.41 299.438 310.262 298.523C309.113 297.609 308.158 296.977 307.396 296.625C306.635 296.262 305.762 296.08 304.777 296.08C304.754 296.08 304.736 296.08 304.725 296.08C303.775 296.08 302.867 296.332 302 296.836C299.562 298.254 298.344 301.301 298.344 305.977C298.344 307.312 298.555 308.613 298.977 309.879C300.207 313.617 302.562 315.486 306.043 315.486C306.055 315.486 306.066 315.486 306.078 315.486C307.672 315.486 309.324 314.889 311.035 313.693C312.137 312.932 312.77 312.551 312.934 312.551C313.508 312.551 313.795 312.82 313.795 313.359V313.799C313.795 314.068 313.52 314.613 312.969 315.434C312.43 316.254 311.703 316.875 310.789 317.297C309.195 318.035 307.32 318.404 305.164 318.404H304.566C302.844 318.404 301.262 318.088 299.82 317.455C296.949 316.189 294.957 314.098 293.844 311.18C293.246 309.621 292.947 308.104 292.947 306.627V305.396C292.947 303.932 293.234 302.438 293.809 300.914C294.992 297.762 297.02 295.564 299.891 294.322C301.402 293.666 302.896 293.338 304.373 293.338H304.953C308.656 293.338 311.105 293.689 312.301 294.393C313.086 294.85 313.479 296.092 313.479 298.119ZM325.606 307.383V307.559C325.606 307.699 326.151 307.77 327.241 307.77H329.262C330.868 307.77 331.67 307.676 331.67 307.488C331.67 306.984 331.172 305.438 330.176 302.848C329.18 300.258 328.665 298.963 328.629 298.963C328.606 298.963 328.096 300.264 327.1 302.865C326.104 305.455 325.606 306.961 325.606 307.383ZM329.069 293.566H329.579C330.446 293.566 331.419 294.492 332.497 296.344C332.872 296.988 333.434 298.324 334.184 300.352C334.934 302.379 335.579 304.061 336.118 305.396C336.657 306.732 337.243 308.326 337.876 310.178C338.52 312.018 338.983 313.242 339.264 313.852C339.557 314.449 340.073 315.023 340.811 315.574C341.549 316.125 341.919 316.605 341.919 317.016C341.919 317.414 341.667 317.678 341.163 317.807C340.342 318.006 338.309 318.105 335.063 318.105C333.586 318.105 332.848 317.789 332.848 317.156C332.848 316.992 332.965 316.594 333.2 315.961C333.434 315.316 333.551 314.842 333.551 314.537C333.551 313.096 333.206 311.883 332.514 310.898C332.233 310.5 331.348 310.301 329.86 310.301C327.129 310.301 325.583 310.389 325.219 310.564C324.868 310.74 324.504 311.186 324.129 311.9C323.766 312.615 323.585 313.277 323.585 313.887C323.585 314.496 323.749 315.152 324.077 315.855C324.417 316.559 324.586 317.109 324.586 317.508C324.586 318 324.059 318.246 323.004 318.246C320.497 318.246 318.821 318.129 317.977 317.895C317.438 317.742 317.169 317.361 317.169 316.752C317.169 316.67 317.702 316.16 318.768 315.223C319.354 314.707 319.823 314.033 320.174 313.201C322.706 307.166 324.311 302.795 324.991 300.088C325.682 297.369 326.268 295.605 326.749 294.797C327.229 293.977 328.003 293.566 329.069 293.566ZM363.046 306.574V305.379C363.046 304.137 362.876 302.924 362.536 301.74C361.81 299.221 360.456 297.521 358.476 296.643C357.573 296.244 356.589 296.045 355.523 296.045L355.276 296.062C353.941 296.062 353.191 296.361 353.026 296.959C352.991 297.088 352.974 298.84 352.974 302.215V308.965L352.956 309.229C352.956 309.404 352.956 309.58 352.956 309.756L352.903 311.602C352.903 311.777 352.903 311.953 352.903 312.129L352.886 312.92V313.201C352.886 314.186 353.009 314.836 353.255 315.152C353.501 315.469 354.128 315.627 355.136 315.627H356.191C357.175 315.627 358.112 315.375 359.003 314.871C359.905 314.367 360.62 313.764 361.148 313.061C361.675 312.346 362.12 311.414 362.484 310.266C362.859 309.105 363.046 307.875 363.046 306.574ZM346.751 296.01C346.083 295.67 345.749 295.266 345.749 294.797C345.749 294.316 346.03 294.029 346.593 293.936C348.175 293.666 350.9 293.531 354.767 293.531H355.698C359.788 293.531 363.005 294.609 365.349 296.766C367.693 298.91 368.864 301.863 368.864 305.625C368.864 309.387 367.693 312.404 365.349 314.678C363.005 316.951 359.9 318.088 356.032 318.088H354.644L354.187 318.07L353.237 318.053C352.933 318.041 352.634 318.035 352.341 318.035L348.403 317.912C347.091 317.912 346.312 317.836 346.066 317.684C345.831 317.531 345.714 317.232 345.714 316.787C345.714 316.529 346.054 316.178 346.734 315.732C347.413 315.275 347.841 314.736 348.017 314.115C348.193 313.494 348.28 311.432 348.28 307.928L348.245 305.678L348.298 303.023L348.316 302.584C348.327 302.279 348.333 301.98 348.333 301.688L348.368 300.369C348.368 298.775 348.245 297.686 347.999 297.1C347.835 296.713 347.419 296.35 346.751 296.01ZM379.287 292.248H378.988C378.261 292.248 377.898 292.031 377.898 291.598C377.898 290.941 379.129 289.383 381.59 286.922C382.082 286.43 382.644 286.184 383.277 286.184H383.91C384.461 286.184 384.953 286.365 385.386 286.729C385.597 286.904 386.043 287.426 386.722 288.293L388.586 290.525C389.031 291.053 389.254 291.369 389.254 291.475V291.598C389.254 292.02 388.879 292.23 388.129 292.23C387.379 292.23 386.629 291.938 385.879 291.352C385.129 290.766 384.56 290.314 384.174 289.998C383.799 289.67 383.582 289.506 383.523 289.506C383.465 289.506 383.148 289.746 382.574 290.227C382.011 290.707 381.672 290.994 381.554 291.088C380.57 291.861 379.814 292.248 379.287 292.248ZM391.117 295.184C391.797 295.688 392.136 296.537 392.136 297.732C392.136 298.916 391.802 299.508 391.134 299.508C390.865 299.508 389.968 299.15 388.445 298.436C386.933 297.709 385.615 297.346 384.49 297.346C383.377 297.346 382.586 297.721 382.117 298.471C381.66 299.221 381.431 300.451 381.431 302.162C381.431 302.865 381.631 303.428 382.029 303.85C382.439 304.271 382.867 304.482 383.312 304.482C384.179 304.482 384.883 304.307 385.422 303.955C386.406 303.311 387.103 302.988 387.513 302.988L388.023 303.217C388.48 303.58 388.709 304.506 388.709 305.994C388.709 307.471 388.533 308.402 388.181 308.789L387.724 309.053C387.22 309.053 386.605 308.789 385.879 308.262C385.164 307.723 384.443 307.453 383.716 307.453C382.17 307.453 381.396 308.203 381.396 309.703C381.396 312.012 381.619 313.547 382.064 314.309C382.509 315.07 383.224 315.451 384.209 315.451C385.744 315.451 387.326 314.994 388.955 314.08C390.584 313.154 391.568 312.691 391.908 312.691C392.248 312.691 392.488 312.844 392.629 313.148C392.781 313.441 392.857 313.992 392.857 314.801C392.857 316.16 392.552 317.092 391.943 317.596C391.334 318.1 390.302 318.352 388.849 318.352H380.658L379.937 318.334L377.775 318.352H377.019C375.238 318.352 374.142 318.211 373.732 317.93C373.521 317.789 373.416 317.508 373.416 317.086C373.416 316.652 373.756 316.219 374.435 315.785C375.127 315.34 375.549 314.895 375.701 314.449C375.853 314.004 375.929 311.361 375.929 306.521C375.929 301.682 375.853 299.051 375.701 298.629C375.56 298.195 375.144 297.68 374.453 297.082C373.773 296.484 373.433 296.004 373.433 295.641C373.433 295.02 373.914 294.65 374.875 294.533C375.367 294.475 377.793 294.445 382.152 294.445L388.129 294.41C389.453 294.41 390.449 294.668 391.117 295.184ZM419.522 295.447C420.401 294.451 421.725 293.953 423.494 293.953C425.276 293.953 426.401 294.082 426.869 294.34L427.344 294.779C427.344 295.201 427.11 295.693 426.641 296.256C426.172 296.807 425.903 297.176 425.832 297.363C425.563 298.043 425.428 298.992 425.428 300.211C425.428 301.43 425.446 302.455 425.481 303.287L425.656 306.398C425.715 307.793 425.744 309.357 425.744 311.092C425.744 312.826 425.821 313.916 425.973 314.361C426.137 314.795 426.448 315.205 426.905 315.592L427.906 316.471C427.906 317.139 427.203 317.473 425.797 317.473C423.84 317.473 422.293 317.344 421.156 317.086C420.348 316.898 419.944 316.529 419.944 315.979L420.067 315.486C420.5 314.115 420.717 313.09 420.717 312.41C420.717 311.719 420.635 310.424 420.471 308.525C420.319 306.627 420.242 304.922 420.242 303.41C420.242 301.898 420.184 301.143 420.067 301.143C419.762 301.143 418.877 303.1 417.412 307.014C415.948 310.928 414.934 313.436 414.371 314.537C413.551 316.154 412.742 316.963 411.946 316.963C411.16 316.963 410.528 316.477 410.047 315.504L409.643 314.537C409.514 314.209 409.127 313.219 408.483 311.566L406.918 307.611C405.254 303.416 404.24 301.318 403.877 301.318C403.526 301.318 403.35 302.93 403.35 306.152C403.35 307.688 403.379 308.994 403.438 310.072L403.578 311.918C403.625 312.516 403.649 313.113 403.649 313.711L403.719 314.555L403.807 315.258C403.842 315.621 403.86 316.102 403.86 316.699L403.561 317.051C403.022 317.438 402.283 317.631 401.346 317.631C399.155 317.631 398.059 317.355 398.059 316.805C398.059 316.57 398.281 316.143 398.727 315.521C399.184 314.9 399.5 314.314 399.676 313.764C399.852 313.201 399.94 311.977 399.94 310.09L399.975 309.053L400.045 307.998C400.209 304.717 400.291 302.525 400.291 301.424C400.291 300.322 400.215 299.449 400.063 298.805C399.922 298.16 399.588 297.41 399.061 296.555C398.545 295.688 398.287 295.066 398.287 294.691L398.656 294.27C399.149 293.906 399.664 293.725 400.203 293.725H401.153C402.313 293.725 403.391 293.953 404.387 294.41C405.383 294.855 406.139 295.453 406.655 296.203L407.147 297.012C407.545 297.727 407.949 298.623 408.36 299.701C408.77 300.768 409.367 302.186 410.153 303.955C410.938 305.713 411.612 307.055 412.174 307.98L412.631 308.561C412.959 308.561 414.084 306.492 416.006 302.355C417.94 298.219 419.112 295.916 419.522 295.447ZM435.095 317.771C433.595 317.771 432.845 317.531 432.845 317.051C432.845 316.57 433.231 316.061 434.005 315.521C434.79 314.971 435.27 314.355 435.446 313.676C435.622 312.996 435.71 310.312 435.71 305.625C435.71 300.926 435.663 298.395 435.569 298.031C435.358 297.199 434.96 296.578 434.374 296.168C433.307 295.418 432.774 294.832 432.774 294.41V294.164C432.774 293.742 434.251 293.531 437.204 293.531L438.399 293.479H439.595L439.999 293.496H440.403C441.739 293.496 442.548 293.549 442.829 293.654C443.122 293.748 443.268 294.047 443.268 294.551C443.268 294.855 442.835 295.359 441.968 296.062C441.499 296.449 441.182 297 441.018 297.715C440.854 298.43 440.772 301.189 440.772 305.994C440.772 310.799 440.837 313.465 440.966 313.992C441.095 314.52 441.516 315.088 442.231 315.697C442.946 316.307 443.304 316.811 443.304 317.209C443.304 317.678 442.835 317.912 441.897 317.912H440.667L440.263 317.895H439.436L438.241 317.859L436.659 317.824L435.886 317.789C435.628 317.777 435.364 317.771 435.095 317.771ZM468.439 298.119C468.439 299.303 468.093 299.895 467.402 299.895C467.097 299.895 466.37 299.438 465.222 298.523C464.074 297.609 463.119 296.977 462.357 296.625C461.595 296.262 460.722 296.08 459.738 296.08C459.714 296.08 459.697 296.08 459.685 296.08C458.736 296.08 457.828 296.332 456.96 296.836C454.523 298.254 453.304 301.301 453.304 305.977C453.304 307.312 453.515 308.613 453.937 309.879C455.167 313.617 457.523 315.486 461.003 315.486C461.015 315.486 461.027 315.486 461.038 315.486C462.632 315.486 464.285 314.889 465.995 313.693C467.097 312.932 467.73 312.551 467.894 312.551C468.468 312.551 468.755 312.82 468.755 313.359V313.799C468.755 314.068 468.48 314.613 467.929 315.434C467.39 316.254 466.663 316.875 465.749 317.297C464.156 318.035 462.281 318.404 460.124 318.404H459.527C457.804 318.404 456.222 318.088 454.781 317.455C451.91 316.189 449.917 314.098 448.804 311.18C448.206 309.621 447.908 308.104 447.908 306.627V305.396C447.908 303.932 448.195 302.438 448.769 300.914C449.953 297.762 451.98 295.564 454.851 294.322C456.363 293.666 457.857 293.338 459.333 293.338H459.913C463.617 293.338 466.066 293.689 467.261 294.393C468.046 294.85 468.439 296.092 468.439 298.119ZM491.113 306.768V305.59C491.113 304.395 490.955 303.141 490.639 301.828C490.006 299.215 488.893 297.404 487.299 296.396C486.584 295.951 485.764 295.729 484.838 295.729H484.574C483.812 295.729 483.033 295.957 482.236 296.414C480.689 297.305 479.629 298.875 479.055 301.125C478.691 302.531 478.51 303.932 478.51 305.326V305.924C478.51 307.295 478.685 308.648 479.037 309.984C479.74 312.621 480.947 314.449 482.658 315.469C483.361 315.891 484.088 316.102 484.838 316.102H485.365C486.162 316.102 486.93 315.873 487.668 315.416C488.406 314.947 489.01 314.32 489.478 313.535C490.568 311.719 491.113 309.463 491.113 306.768ZM473.447 306.012C473.447 304.137 473.734 302.402 474.309 300.809C475.422 297.691 477.373 295.529 480.162 294.322C481.779 293.619 483.432 293.268 485.119 293.268L485.541 293.285H485.945C487.305 293.285 488.717 293.596 490.182 294.217C491.646 294.838 492.894 295.723 493.926 296.871C494.969 298.008 495.76 299.338 496.299 300.861C496.838 302.373 497.107 303.908 497.107 305.467V305.871C497.107 307.641 496.809 309.334 496.211 310.951C495.625 312.557 494.775 313.934 493.662 315.082C491.412 317.414 488.43 318.586 484.715 318.598C483.191 318.598 481.721 318.311 480.303 317.736C478.896 317.15 477.719 316.336 476.769 315.293C474.555 312.832 473.447 309.738 473.447 306.012ZM529.642 306.574V305.379C529.642 304.137 529.472 302.924 529.132 301.74C528.405 299.221 527.052 297.521 525.071 296.643C524.169 296.244 523.185 296.045 522.118 296.045L521.872 296.062C520.536 296.062 519.786 296.361 519.622 296.959C519.587 297.088 519.569 298.84 519.569 302.215V308.965L519.552 309.229C519.552 309.404 519.552 309.58 519.552 309.756L519.499 311.602C519.499 311.777 519.499 311.953 519.499 312.129L519.482 312.92V313.201C519.482 314.186 519.605 314.836 519.851 315.152C520.097 315.469 520.724 315.627 521.732 315.627H522.786C523.771 315.627 524.708 315.375 525.599 314.871C526.501 314.367 527.216 313.764 527.743 313.061C528.271 312.346 528.716 311.414 529.079 310.266C529.454 309.105 529.642 307.875 529.642 306.574ZM513.347 296.01C512.679 295.67 512.345 295.266 512.345 294.797C512.345 294.316 512.626 294.029 513.189 293.936C514.771 293.666 517.495 293.531 521.362 293.531H522.294C526.384 293.531 529.601 294.609 531.944 296.766C534.288 298.91 535.46 301.863 535.46 305.625C535.46 309.387 534.288 312.404 531.944 314.678C529.601 316.951 526.495 318.088 522.628 318.088H521.239L520.782 318.07L519.833 318.053C519.528 318.041 519.23 318.035 518.937 318.035L514.999 317.912C513.687 317.912 512.907 317.836 512.661 317.684C512.427 317.531 512.31 317.232 512.31 316.787C512.31 316.529 512.649 316.178 513.329 315.732C514.009 315.275 514.437 314.736 514.612 314.115C514.788 313.494 514.876 311.432 514.876 307.928L514.841 305.678L514.894 303.023L514.911 302.584C514.923 302.279 514.929 301.98 514.929 301.688L514.964 300.369C514.964 298.775 514.841 297.686 514.595 297.1C514.431 296.713 514.015 296.35 513.347 296.01ZM558.714 296.678C558.714 297.463 558.603 297.979 558.38 298.225C558.158 298.459 557.818 298.576 557.361 298.576L557.045 298.418L556.675 298.172L556.254 297.926C555.843 297.691 555.052 297.369 553.88 296.959C552.72 296.549 551.636 296.344 550.629 296.344C549.621 296.344 548.882 296.707 548.414 297.434C547.957 298.16 547.728 299.654 547.728 301.916C547.728 302.561 547.927 303.076 548.326 303.463C548.724 303.85 549.275 304.043 549.978 304.043C550.681 304.043 551.455 303.797 552.298 303.305C553.154 302.812 553.757 302.566 554.109 302.566C554.472 302.566 554.789 302.807 555.058 303.287C555.328 303.756 555.463 304.318 555.463 304.975C555.463 306.744 555.269 307.834 554.882 308.244L554.408 308.508C553.716 308.508 553.166 308.35 552.755 308.033C551.853 307.342 551.191 306.996 550.769 306.996C549.433 306.996 548.537 307.277 548.08 307.84C547.857 308.121 547.746 309.088 547.746 310.74C547.746 312.381 548.08 313.629 548.748 314.484C549.099 314.941 549.873 315.17 551.068 315.17C552.263 315.17 553.787 314.766 555.638 313.957C557.502 313.137 558.568 312.727 558.838 312.727C559.341 312.727 559.593 313.201 559.593 314.15V314.783C559.593 315.111 559.476 315.568 559.242 316.154C559.007 316.74 558.644 317.197 558.152 317.525C557.66 317.854 556.851 318.018 555.726 318.018H542.982C541.037 318.018 540.064 317.766 540.064 317.262V316.699C540.064 316.301 540.422 315.902 541.136 315.504C541.863 315.105 542.285 314.678 542.402 314.221C542.531 313.752 542.595 311.057 542.595 306.135C542.595 301.213 542.513 298.424 542.349 297.768C542.185 297.111 541.775 296.508 541.119 295.957C540.463 295.406 540.134 294.861 540.134 294.322C540.134 293.936 540.556 293.719 541.4 293.672C542.244 293.613 545.015 293.584 549.714 293.584L554.285 293.566H555.023C556.207 293.566 557.039 293.736 557.519 294.076C558.316 294.639 558.714 295.506 558.714 296.678ZM594.993 298.119C594.993 299.303 594.647 299.895 593.956 299.895C593.651 299.895 592.925 299.438 591.776 298.523C590.628 297.609 589.673 296.977 588.911 296.625C588.149 296.262 587.276 296.08 586.292 296.08C586.268 296.08 586.251 296.08 586.239 296.08C585.29 296.08 584.382 296.332 583.514 296.836C581.077 298.254 579.858 301.301 579.858 305.977C579.858 307.312 580.069 308.613 580.491 309.879C581.721 313.617 584.077 315.486 587.557 315.486C587.569 315.486 587.581 315.486 587.593 315.486C589.186 315.486 590.839 314.889 592.55 313.693C593.651 312.932 594.284 312.551 594.448 312.551C595.022 312.551 595.309 312.82 595.309 313.359V313.799C595.309 314.068 595.034 314.613 594.483 315.434C593.944 316.254 593.218 316.875 592.303 317.297C590.71 318.035 588.835 318.404 586.678 318.404H586.081C584.358 318.404 582.776 318.088 581.335 317.455C578.464 316.189 576.471 314.098 575.358 311.18C574.76 309.621 574.462 308.104 574.462 306.627V305.396C574.462 303.932 574.749 302.438 575.323 300.914C576.507 297.762 578.534 295.564 581.405 294.322C582.917 293.666 584.411 293.338 585.887 293.338H586.468C590.171 293.338 592.62 293.689 593.815 294.393C594.6 294.85 594.993 296.092 594.993 298.119ZM602.357 317.771C600.857 317.771 600.107 317.531 600.107 317.051C600.107 316.57 600.493 316.061 601.267 315.521C602.052 314.971 602.532 314.355 602.708 313.676C602.884 312.996 602.972 310.312 602.972 305.625C602.972 300.926 602.925 298.395 602.831 298.031C602.62 297.199 602.222 296.578 601.636 296.168C600.57 295.418 600.036 294.832 600.036 294.41V294.164C600.036 293.742 601.513 293.531 604.466 293.531L605.661 293.479H606.857L607.261 293.496H607.665C609.001 293.496 609.81 293.549 610.091 293.654C610.384 293.748 610.531 294.047 610.531 294.551C610.531 294.855 610.097 295.359 609.23 296.062C608.761 296.449 608.445 297 608.281 297.715C608.116 298.43 608.034 301.189 608.034 305.994C608.034 310.799 608.099 313.465 608.228 313.992C608.357 314.52 608.779 315.088 609.493 315.697C610.208 316.307 610.566 316.811 610.566 317.209C610.566 317.678 610.097 317.912 609.159 317.912H607.929L607.525 317.895H606.698L605.503 317.859L603.921 317.824L603.148 317.789C602.89 317.777 602.626 317.771 602.357 317.771ZM621.146 292.248H620.848C620.121 292.248 619.758 292.031 619.758 291.598C619.758 290.941 620.988 289.383 623.449 286.922C623.941 286.43 624.504 286.184 625.137 286.184H625.769C626.32 286.184 626.812 286.365 627.246 286.729C627.457 286.904 627.902 287.426 628.582 288.293L630.445 290.525C630.891 291.053 631.113 291.369 631.113 291.475V291.598C631.113 292.02 630.738 292.23 629.988 292.23C629.238 292.23 628.488 291.938 627.738 291.352C626.988 290.766 626.42 290.314 626.033 289.998C625.658 289.67 625.441 289.506 625.383 289.506C625.324 289.506 625.008 289.746 624.433 290.227C623.871 290.707 623.531 290.994 623.414 291.088C622.43 291.861 621.674 292.248 621.146 292.248ZM632.976 295.184C633.656 295.688 633.996 296.537 633.996 297.732C633.996 298.916 633.662 299.508 632.994 299.508C632.724 299.508 631.828 299.15 630.305 298.436C628.793 297.709 627.474 297.346 626.349 297.346C625.236 297.346 624.445 297.721 623.976 298.471C623.519 299.221 623.291 300.451 623.291 302.162C623.291 302.865 623.49 303.428 623.889 303.85C624.299 304.271 624.726 304.482 625.172 304.482C626.039 304.482 626.742 304.307 627.281 303.955C628.266 303.311 628.963 302.988 629.373 302.988L629.883 303.217C630.34 303.58 630.568 304.506 630.568 305.994C630.568 307.471 630.392 308.402 630.041 308.789L629.584 309.053C629.08 309.053 628.465 308.789 627.738 308.262C627.023 307.723 626.303 307.453 625.576 307.453C624.029 307.453 623.256 308.203 623.256 309.703C623.256 312.012 623.478 313.547 623.924 314.309C624.369 315.07 625.084 315.451 626.068 315.451C627.603 315.451 629.185 314.994 630.814 314.08C632.443 313.154 633.428 312.691 633.767 312.691C634.107 312.691 634.348 312.844 634.488 313.148C634.641 313.441 634.717 313.992 634.717 314.801C634.717 316.16 634.412 317.092 633.803 317.596C633.193 318.1 632.162 318.352 630.709 318.352H622.517L621.797 318.334L619.635 318.352H618.879C617.098 318.352 616.002 318.211 615.592 317.93C615.381 317.789 615.275 317.508 615.275 317.086C615.275 316.652 615.615 316.219 616.295 315.785C616.986 315.34 617.408 314.895 617.56 314.449C617.713 314.004 617.789 311.361 617.789 306.521C617.789 301.682 617.713 299.051 617.56 298.629C617.42 298.195 617.004 297.68 616.312 297.082C615.633 296.484 615.293 296.004 615.293 295.641C615.293 295.02 615.773 294.65 616.734 294.533C617.226 294.475 619.652 294.445 624.012 294.445L629.988 294.41C631.312 294.41 632.308 294.668 632.976 295.184ZM661.241 312.375C661.217 313.043 661.205 313.992 661.205 315.223C661.205 316.441 661.129 317.162 660.977 317.385C660.836 317.596 660.467 317.701 659.87 317.701C659.67 317.701 659.172 317.484 658.375 317.051C657.578 316.605 656.858 315.984 656.213 315.188C655.944 314.859 654.209 312.357 651.01 307.682C647.811 303.006 645.924 300.668 645.35 300.668C645.116 300.668 644.998 302.262 644.998 305.449C644.998 308.625 645.227 311.484 645.684 314.027C645.813 314.742 646.036 315.322 646.352 315.768C646.68 316.213 646.844 316.582 646.844 316.875L646.703 317.279C646.364 317.678 645.239 317.877 643.328 317.877H642.573C641.061 317.877 640.164 317.766 639.883 317.543C639.602 317.32 639.461 316.986 639.461 316.541C639.461 316.295 639.784 315.979 640.428 315.592C641.084 315.193 641.477 314.801 641.606 314.414C641.676 314.203 641.711 313.16 641.711 311.285L641.746 310.441L641.799 307.91C641.834 306.234 641.852 304.33 641.852 302.197C641.852 300.053 641.77 298.711 641.606 298.172C641.453 297.621 641.026 297.088 640.323 296.572C639.62 296.045 639.268 295.57 639.268 295.148C639.268 294.715 639.432 294.387 639.76 294.164C640.1 293.93 640.75 293.812 641.711 293.812H642.502C644.401 293.812 646.088 294.615 647.565 296.221C649.041 297.826 651.01 300.422 653.471 304.008C655.944 307.594 657.368 309.387 657.743 309.387C658.188 309.387 658.411 307.078 658.411 302.461C658.411 299.027 658.03 296.865 657.268 295.975C656.834 295.459 656.618 295.102 656.618 294.902C656.618 294.375 657.151 294.111 658.217 294.111C660.35 294.111 661.815 294.205 662.612 294.393C663.42 294.568 663.825 294.943 663.825 295.518C663.825 295.857 663.473 296.385 662.77 297.1C662.078 297.803 661.698 298.301 661.627 298.594C661.557 298.875 661.522 300.234 661.522 302.672L661.293 310.828L661.276 311.602L661.241 312.375ZM688.503 298.119C688.503 299.303 688.157 299.895 687.466 299.895C687.161 299.895 686.435 299.438 685.286 298.523C684.138 297.609 683.183 296.977 682.421 296.625C681.659 296.262 680.786 296.08 679.802 296.08C679.778 296.08 679.761 296.08 679.749 296.08C678.8 296.08 677.892 296.332 677.024 296.836C674.587 298.254 673.368 301.301 673.368 305.977C673.368 307.312 673.579 308.613 674.001 309.879C675.231 313.617 677.587 315.486 681.067 315.486C681.079 315.486 681.091 315.486 681.103 315.486C682.696 315.486 684.349 314.889 686.06 313.693C687.161 312.932 687.794 312.551 687.958 312.551C688.532 312.551 688.819 312.82 688.819 313.359V313.799C688.819 314.068 688.544 314.613 687.993 315.434C687.454 316.254 686.728 316.875 685.813 317.297C684.22 318.035 682.345 318.404 680.188 318.404H679.591C677.868 318.404 676.286 318.088 674.845 317.455C671.974 316.189 669.981 314.098 668.868 311.18C668.271 309.621 667.972 308.104 667.972 306.627V305.396C667.972 303.932 668.259 302.438 668.833 300.914C670.017 297.762 672.044 295.564 674.915 294.322C676.427 293.666 677.921 293.338 679.397 293.338H679.978C683.681 293.338 686.13 293.689 687.325 294.393C688.11 294.85 688.503 296.092 688.503 298.119ZM695.867 317.771C694.367 317.771 693.617 317.531 693.617 317.051C693.617 316.57 694.003 316.061 694.777 315.521C695.562 314.971 696.042 314.355 696.218 313.676C696.394 312.996 696.482 310.312 696.482 305.625C696.482 300.926 696.435 298.395 696.341 298.031C696.13 297.199 695.732 296.578 695.146 296.168C694.08 295.418 693.546 294.832 693.546 294.41V294.164C693.546 293.742 695.023 293.531 697.976 293.531L699.171 293.479H700.367L700.771 293.496H701.175C702.511 293.496 703.32 293.549 703.601 293.654C703.894 293.748 704.041 294.047 704.041 294.551C704.041 294.855 703.607 295.359 702.74 296.062C702.271 296.449 701.955 297 701.791 297.715C701.626 298.43 701.544 301.189 701.544 305.994C701.544 310.799 701.609 313.465 701.738 313.992C701.867 314.52 702.289 315.088 703.003 315.697C703.718 316.307 704.076 316.811 704.076 317.209C704.076 317.678 703.607 317.912 702.669 317.912H701.439L701.035 317.895H700.208L699.013 317.859L697.431 317.824L696.658 317.789C696.4 317.777 696.136 317.771 695.867 317.771ZM716.133 307.383V307.559C716.133 307.699 716.678 307.77 717.768 307.77H719.789C721.395 307.77 722.197 307.676 722.197 307.488C722.197 306.984 721.699 305.438 720.703 302.848C719.707 300.258 719.192 298.963 719.156 298.963C719.133 298.963 718.623 300.264 717.627 302.865C716.631 305.455 716.133 306.961 716.133 307.383ZM719.596 293.566H720.106C720.973 293.566 721.945 294.492 723.024 296.344C723.399 296.988 723.961 298.324 724.711 300.352C725.461 302.379 726.106 304.061 726.645 305.396C727.184 306.732 727.77 308.326 728.402 310.178C729.047 312.018 729.51 313.242 729.791 313.852C730.084 314.449 730.6 315.023 731.338 315.574C732.076 316.125 732.445 316.605 732.445 317.016C732.445 317.414 732.193 317.678 731.69 317.807C730.869 318.006 728.836 318.105 725.59 318.105C724.113 318.105 723.375 317.789 723.375 317.156C723.375 316.992 723.492 316.594 723.727 315.961C723.961 315.316 724.078 314.842 724.078 314.537C724.078 313.096 723.733 311.883 723.041 310.898C722.76 310.5 721.875 310.301 720.387 310.301C717.656 310.301 716.109 310.389 715.746 310.564C715.395 310.74 715.031 311.186 714.656 311.9C714.293 312.615 714.111 313.277 714.111 313.887C714.111 314.496 714.276 315.152 714.604 315.855C714.943 316.559 715.113 317.109 715.113 317.508C715.113 318 714.586 318.246 713.531 318.246C711.024 318.246 709.348 318.129 708.504 317.895C707.965 317.742 707.695 317.361 707.695 316.752C707.695 316.67 708.229 316.16 709.295 315.223C709.881 314.707 710.35 314.033 710.701 313.201C713.233 307.166 714.838 302.795 715.518 300.088C716.209 297.369 716.795 295.605 717.276 294.797C717.756 293.977 718.529 293.566 719.596 293.566ZM764.154 306.574V305.379C764.154 304.137 763.984 302.924 763.644 301.74C762.917 299.221 761.564 297.521 759.583 296.643C758.681 296.244 757.697 296.045 756.63 296.045L756.384 296.062C755.048 296.062 754.298 296.361 754.134 296.959C754.099 297.088 754.081 298.84 754.081 302.215V308.965L754.064 309.229C754.064 309.404 754.064 309.58 754.064 309.756L754.011 311.602C754.011 311.777 754.011 311.953 754.011 312.129L753.993 312.92V313.201C753.993 314.186 754.116 314.836 754.363 315.152C754.609 315.469 755.236 315.627 756.243 315.627H757.298C758.282 315.627 759.22 315.375 760.111 314.871C761.013 314.367 761.728 313.764 762.255 313.061C762.782 312.346 763.228 311.414 763.591 310.266C763.966 309.105 764.154 307.875 764.154 306.574ZM747.859 296.01C747.191 295.67 746.857 295.266 746.857 294.797C746.857 294.316 747.138 294.029 747.7 293.936C749.282 293.666 752.007 293.531 755.874 293.531H756.806C760.896 293.531 764.113 294.609 766.456 296.766C768.8 298.91 769.972 301.863 769.972 305.625C769.972 309.387 768.8 312.404 766.456 314.678C764.113 316.951 761.007 318.088 757.14 318.088H755.751L755.294 318.07L754.345 318.053C754.04 318.041 753.741 318.035 753.448 318.035L749.511 317.912C748.198 317.912 747.419 317.836 747.173 317.684C746.939 317.531 746.822 317.232 746.822 316.787C746.822 316.529 747.161 316.178 747.841 315.732C748.521 315.275 748.948 314.736 749.124 314.115C749.3 313.494 749.388 311.432 749.388 307.928L749.353 305.678L749.406 303.023L749.423 302.584C749.435 302.279 749.441 301.98 749.441 301.688L749.476 300.369C749.476 298.775 749.353 297.686 749.107 297.1C748.943 296.713 748.527 296.35 747.859 296.01ZM781.379 307.383V307.559C781.379 307.699 781.924 307.77 783.013 307.77H785.035C786.64 307.77 787.443 307.676 787.443 307.488C787.443 306.984 786.945 305.438 785.949 302.848C784.953 300.258 784.437 298.963 784.402 298.963C784.379 298.963 783.869 300.264 782.873 302.865C781.877 305.455 781.379 306.961 781.379 307.383ZM784.842 293.566H785.351C786.219 293.566 787.191 294.492 788.269 296.344C788.644 296.988 789.207 298.324 789.957 300.352C790.707 302.379 791.351 304.061 791.89 305.396C792.429 306.732 793.015 308.326 793.648 310.178C794.293 312.018 794.756 313.242 795.037 313.852C795.33 314.449 795.845 315.023 796.584 315.574C797.322 316.125 797.691 316.605 797.691 317.016C797.691 317.414 797.439 317.678 796.935 317.807C796.115 318.006 794.082 318.105 790.836 318.105C789.359 318.105 788.621 317.789 788.621 317.156C788.621 316.992 788.738 316.594 788.972 315.961C789.207 315.316 789.324 314.842 789.324 314.537C789.324 313.096 788.978 311.883 788.287 310.898C788.006 310.5 787.121 310.301 785.633 310.301C782.902 310.301 781.355 310.389 780.992 310.564C780.64 310.74 780.277 311.186 779.902 311.9C779.539 312.615 779.357 313.277 779.357 313.887C779.357 314.496 779.521 315.152 779.849 315.855C780.189 316.559 780.359 317.109 780.359 317.508C780.359 318 779.832 318.246 778.777 318.246C776.269 318.246 774.594 318.129 773.75 317.895C773.211 317.742 772.941 317.361 772.941 316.752C772.941 316.67 773.474 316.16 774.541 315.223C775.127 314.707 775.595 314.033 775.947 313.201C778.478 307.166 780.084 302.795 780.763 300.088C781.455 297.369 782.041 295.605 782.521 294.797C783.002 293.977 783.775 293.566 784.842 293.566ZM832.458 298.119C832.458 299.303 832.112 299.895 831.421 299.895C831.116 299.895 830.39 299.438 829.241 298.523C828.093 297.609 827.138 296.977 826.376 296.625C825.614 296.262 824.741 296.08 823.757 296.08C823.733 296.08 823.716 296.08 823.704 296.08C822.755 296.08 821.847 296.332 820.979 296.836C818.542 298.254 817.323 301.301 817.323 305.977C817.323 307.312 817.534 308.613 817.956 309.879C819.186 313.617 821.542 315.486 825.022 315.486C825.034 315.486 825.046 315.486 825.057 315.486C826.651 315.486 828.304 314.889 830.015 313.693C831.116 312.932 831.749 312.551 831.913 312.551C832.487 312.551 832.774 312.82 832.774 313.359V313.799C832.774 314.068 832.499 314.613 831.948 315.434C831.409 316.254 830.682 316.875 829.768 317.297C828.175 318.035 826.3 318.404 824.143 318.404H823.546C821.823 318.404 820.241 318.088 818.8 317.455C815.929 316.189 813.936 314.098 812.823 311.18C812.225 309.621 811.927 308.104 811.927 306.627V305.396C811.927 303.932 812.214 302.438 812.788 300.914C813.972 297.762 815.999 295.564 818.87 294.322C820.382 293.666 821.876 293.338 823.352 293.338H823.932C827.636 293.338 830.085 293.689 831.28 294.393C832.065 294.85 832.458 296.092 832.458 298.119ZM855.132 306.768V305.59C855.132 304.395 854.974 303.141 854.658 301.828C854.025 299.215 852.912 297.404 851.318 296.396C850.603 295.951 849.783 295.729 848.857 295.729H848.593C847.832 295.729 847.052 295.957 846.255 296.414C844.708 297.305 843.648 298.875 843.074 301.125C842.71 302.531 842.529 303.932 842.529 305.326V305.924C842.529 307.295 842.705 308.648 843.056 309.984C843.759 312.621 844.966 314.449 846.677 315.469C847.38 315.891 848.107 316.102 848.857 316.102H849.384C850.181 316.102 850.949 315.873 851.687 315.416C852.425 314.947 853.029 314.32 853.498 313.535C854.587 311.719 855.132 309.463 855.132 306.768ZM837.466 306.012C837.466 304.137 837.753 302.402 838.328 300.809C839.441 297.691 841.392 295.529 844.181 294.322C845.798 293.619 847.451 293.268 849.138 293.268L849.56 293.285H849.964C851.324 293.285 852.736 293.596 854.201 294.217C855.666 294.838 856.914 295.723 857.945 296.871C858.988 298.008 859.779 299.338 860.318 300.861C860.857 302.373 861.126 303.908 861.126 305.467V305.871C861.126 307.641 860.828 309.334 860.23 310.951C859.644 312.557 858.794 313.934 857.681 315.082C855.431 317.414 852.449 318.586 848.734 318.598C847.21 318.598 845.74 318.311 844.322 317.736C842.916 317.15 841.738 316.336 840.789 315.293C838.574 312.832 837.466 309.738 837.466 306.012ZM887.773 295.447C888.652 294.451 889.977 293.953 891.746 293.953C893.527 293.953 894.652 294.082 895.121 294.34L895.596 294.779C895.596 295.201 895.361 295.693 894.893 296.256C894.424 296.807 894.154 297.176 894.084 297.363C893.814 298.043 893.68 298.992 893.68 300.211C893.68 301.43 893.697 302.455 893.732 303.287L893.908 306.398C893.967 307.793 893.996 309.357 893.996 311.092C893.996 312.826 894.072 313.916 894.225 314.361C894.389 314.795 894.699 315.205 895.156 315.592L896.158 316.471C896.158 317.139 895.455 317.473 894.049 317.473C892.092 317.473 890.545 317.344 889.408 317.086C888.6 316.898 888.195 316.529 888.195 315.979L888.318 315.486C888.752 314.115 888.969 313.09 888.969 312.41C888.969 311.719 888.887 310.424 888.723 308.525C888.57 306.627 888.494 304.922 888.494 303.41C888.494 301.898 888.436 301.143 888.318 301.143C888.014 301.143 887.129 303.1 885.664 307.014C884.199 310.928 883.186 313.436 882.623 314.537C881.803 316.154 880.994 316.963 880.197 316.963C879.412 316.963 878.779 316.477 878.299 315.504L877.895 314.537C877.766 314.209 877.379 313.219 876.734 311.566L875.17 307.611C873.506 303.416 872.492 301.318 872.129 301.318C871.777 301.318 871.602 302.93 871.602 306.152C871.602 307.688 871.631 308.994 871.689 310.072L871.83 311.918C871.877 312.516 871.9 313.113 871.9 313.711L871.971 314.555L872.059 315.258C872.094 315.621 872.111 316.102 872.111 316.699L871.812 317.051C871.273 317.438 870.535 317.631 869.598 317.631C867.406 317.631 866.311 317.355 866.311 316.805C866.311 316.57 866.533 316.143 866.979 315.521C867.436 314.9 867.752 314.314 867.928 313.764C868.104 313.201 868.191 311.977 868.191 310.09L868.227 309.053L868.297 307.998C868.461 304.717 868.543 302.525 868.543 301.424C868.543 300.322 868.467 299.449 868.314 298.805C868.174 298.16 867.84 297.41 867.312 296.555C866.797 295.688 866.539 295.066 866.539 294.691L866.908 294.27C867.4 293.906 867.916 293.725 868.455 293.725H869.404C870.564 293.725 871.643 293.953 872.639 294.41C873.635 294.855 874.391 295.453 874.906 296.203L875.398 297.012C875.797 297.727 876.201 298.623 876.611 299.701C877.021 300.768 877.619 302.186 878.404 303.955C879.189 305.713 879.863 307.055 880.426 307.98L880.883 308.561C881.211 308.561 882.336 306.492 884.258 302.355C886.191 298.219 887.363 295.916 887.773 295.447ZM908.585 304.799C908.585 305.467 908.702 305.924 908.936 306.17C909.182 306.404 909.721 306.521 910.553 306.521H911.397C912.604 306.521 913.589 306.07 914.35 305.168C915.112 304.266 915.493 302.988 915.493 301.336L915.475 301.16C915.475 299.496 915.042 298.189 914.174 297.24C913.307 296.291 912.206 295.816 910.87 295.816H910.43C909.446 295.816 908.866 296.057 908.69 296.537C908.631 296.689 908.602 297.574 908.602 299.191V301.863L908.585 302.531V304.799ZM901.395 317.121C901.395 316.312 901.741 315.674 902.432 315.205C903.124 314.725 903.522 314.191 903.628 313.605C903.792 312.68 903.874 310.037 903.874 305.678C903.874 301.318 903.768 298.705 903.557 297.838C903.346 296.959 903.047 296.355 902.661 296.027C901.817 295.324 901.395 294.867 901.395 294.656V294.375C901.395 293.895 901.835 293.59 902.714 293.461C902.96 293.426 904.208 293.408 906.458 293.408L908.778 293.373H909.235L910.624 293.426H912.03C916.178 293.426 918.944 294.709 920.327 297.275C920.854 298.26 921.118 299.303 921.118 300.404V300.896C921.118 302.865 920.397 304.529 918.956 305.889C917.514 307.236 915.481 308.027 912.856 308.262C911.309 308.402 910.436 308.52 910.237 308.613C909.452 308.965 909.059 310.271 909.059 312.533C909.059 313.576 909.422 314.391 910.149 314.977C911.122 315.762 911.608 316.424 911.608 316.963C911.608 317.385 911.157 317.678 910.255 317.842C909.364 318.006 908.069 318.088 906.37 318.088C903.053 318.088 901.395 317.766 901.395 317.121ZM936.11 318.281C934.435 318.281 932.946 317.93 931.646 317.227C929.185 315.891 927.778 313.693 927.427 310.635L927.374 309.914C927.362 309.668 927.357 309.182 927.357 308.455L927.409 304.922V300.984C927.409 298.828 927.351 297.615 927.234 297.346C927.116 297.064 926.689 296.73 925.95 296.344C925.224 295.945 924.86 295.506 924.86 295.025V294.463C924.86 294.064 925.294 293.824 926.161 293.742C927.919 293.566 929.894 293.479 932.085 293.479C933.491 293.479 934.194 293.742 934.194 294.27C934.194 294.293 933.984 294.732 933.562 295.588C933.151 296.443 932.864 297.369 932.7 298.365C932.548 299.35 932.472 301.729 932.472 305.502C932.472 309.264 932.765 311.742 933.351 312.938C934.171 314.613 935.648 315.451 937.78 315.451C939.913 315.451 941.454 314.654 942.403 313.061C943.095 311.9 943.441 309.176 943.441 304.887C943.441 300.586 943.153 297.779 942.579 296.467L942.333 296.027L942.034 295.623C941.683 295.072 941.507 294.697 941.507 294.498C941.507 294.053 941.771 293.777 942.298 293.672C942.521 293.625 943.441 293.602 945.058 293.602C946.687 293.602 947.894 293.754 948.679 294.059C948.995 294.176 949.153 294.498 949.153 295.025C949.153 295.541 948.931 295.969 948.485 296.309C947.56 297.012 947.044 297.539 946.939 297.891C946.833 298.23 946.78 299.842 946.78 302.725L946.816 304.816L946.833 305.52C946.833 308.332 946.693 310.43 946.411 311.812C946.13 313.195 945.579 314.373 944.759 315.346C943.071 317.303 940.441 318.281 936.866 318.281H936.11ZM959.084 296.344C958.111 296.344 957.086 296.789 956.008 297.68C954.285 299.109 953.377 299.824 953.283 299.824C952.674 299.824 952.369 299.443 952.369 298.682V298.137C952.369 296.871 952.474 295.729 952.685 294.709C952.791 294.182 953.025 293.865 953.388 293.76C953.763 293.654 957.291 293.602 963.97 293.602L970.562 293.566H971.722C972.988 293.566 973.738 293.771 973.972 294.182C974.219 294.592 974.342 295.488 974.342 296.871V297.996C974.342 299.238 974.054 299.859 973.48 299.859C972.976 299.859 972.367 299.455 971.652 298.646C970.937 297.838 970.281 297.258 969.683 296.906C969.086 296.543 968.301 296.361 967.328 296.361C966.554 296.361 966.103 296.871 965.974 297.891C965.927 298.242 965.904 300.861 965.904 305.748C965.904 310.623 965.969 313.324 966.097 313.852C966.226 314.379 966.707 314.947 967.539 315.557C968.371 316.154 968.787 316.664 968.787 317.086C968.787 317.496 968.576 317.754 968.154 317.859C967.732 317.965 966.367 318.018 964.058 318.018H961.105C959.945 318.018 959.148 317.977 958.715 317.895C958.293 317.812 958.082 317.578 958.082 317.191C958.082 316.805 958.48 316.254 959.277 315.539C960.074 314.824 960.543 314.203 960.683 313.676C960.824 313.137 960.894 310.477 960.894 305.695C960.894 300.914 960.847 298.283 960.754 297.803C960.66 297.311 960.496 296.947 960.261 296.713C960.039 296.467 959.646 296.344 959.084 296.344ZM983.446 307.383V307.559C983.446 307.699 983.99 307.77 985.08 307.77H987.102C988.707 307.77 989.51 307.676 989.51 307.488C989.51 306.984 989.012 305.438 988.016 302.848C987.02 300.258 986.504 298.963 986.469 298.963C986.446 298.963 985.936 300.264 984.94 302.865C983.944 305.455 983.446 306.961 983.446 307.383ZM986.908 293.566H987.418C988.285 293.566 989.258 294.492 990.336 296.344C990.711 296.988 991.274 298.324 992.024 300.352C992.774 302.379 993.418 304.061 993.957 305.396C994.496 306.732 995.082 308.326 995.715 310.178C996.36 312.018 996.823 313.242 997.104 313.852C997.397 314.449 997.912 315.023 998.651 315.574C999.389 316.125 999.758 316.605 999.758 317.016C999.758 317.414 999.506 317.678 999.002 317.807C998.182 318.006 996.149 318.105 992.903 318.105C991.426 318.105 990.688 317.789 990.688 317.156C990.688 316.992 990.805 316.594 991.039 315.961C991.274 315.316 991.391 314.842 991.391 314.537C991.391 313.096 991.045 311.883 990.354 310.898C990.073 310.5 989.188 310.301 987.699 310.301C984.969 310.301 983.422 310.389 983.059 310.564C982.707 310.74 982.344 311.186 981.969 311.9C981.606 312.615 981.424 313.277 981.424 313.887C981.424 314.496 981.588 315.152 981.916 315.855C982.256 316.559 982.426 317.109 982.426 317.508C982.426 318 981.899 318.246 980.844 318.246C978.336 318.246 976.66 318.129 975.817 317.895C975.278 317.742 975.008 317.361 975.008 316.752C975.008 316.67 975.541 316.16 976.608 315.223C977.194 314.707 977.662 314.033 978.014 313.201C980.545 307.166 982.151 302.795 982.83 300.088C983.522 297.369 984.108 295.605 984.588 294.797C985.069 293.977 985.842 293.566 986.908 293.566ZM1013.57 324.029C1014.96 324.029 1015.65 323.52 1015.65 322.5C1015.65 322.008 1015.33 321.615 1014.68 321.322C1014.05 321.029 1013.73 320.725 1013.73 320.408C1013.73 319.436 1013.93 318.814 1014.33 318.545C1011.35 318.299 1008.9 317.297 1006.98 315.539C1005.61 314.285 1004.62 312.873 1004.01 311.303C1003.4 309.721 1003.1 308.121 1003.1 306.504V305.871C1003.11 304.23 1003.4 302.637 1003.96 301.09C1005.18 297.75 1007.42 295.459 1010.69 294.217C1012.11 293.678 1013.47 293.408 1014.79 293.408C1016.1 293.408 1017.93 293.602 1020.27 293.988C1022.63 294.375 1023.93 294.645 1024.17 294.797C1024.43 294.949 1024.69 295.354 1024.95 296.01C1025.22 296.666 1025.35 297.498 1025.35 298.506C1025.35 299.502 1025.09 300 1024.58 300C1023.82 300 1022.3 299.461 1020.02 298.383C1017.75 297.305 1016.26 296.766 1015.54 296.766C1013.88 296.766 1012.49 297.504 1011.39 298.98C1010.29 300.457 1009.74 302.602 1009.74 305.414C1009.74 308.227 1010.39 310.518 1011.67 312.287C1012.98 314.057 1014.8 314.941 1017.16 314.941C1018.49 314.941 1019.92 314.52 1021.43 313.676C1022.95 312.832 1024.08 312.41 1024.82 312.41C1025.23 312.41 1025.44 312.615 1025.44 313.025V313.395C1025.44 313.781 1025.17 314.408 1024.65 315.275C1024.12 316.143 1023.64 316.734 1023.21 317.051C1022.77 317.355 1021.86 317.689 1020.46 318.053C1019.08 318.416 1017.73 318.598 1016.4 318.598H1015.89C1015.94 318.691 1015.96 318.809 1015.96 318.949C1015.96 319.348 1016.25 319.641 1016.83 319.828C1018.16 320.273 1018.83 321.076 1018.83 322.236V322.693C1018.83 323.631 1018.41 324.416 1017.58 325.049C1016.75 325.693 1015.78 326.016 1014.66 326.016H1014.03C1012.62 326.016 1011.92 325.711 1011.92 325.102V324.961C1011.92 324.305 1012.21 323.977 1012.8 323.977L1013.19 324.029H1013.57ZM1037.86 308.262H1042.36C1042.88 308.262 1043.14 308.203 1043.14 308.086V307.998C1043.14 307.447 1042.3 304.992 1040.62 300.633C1040.39 300.012 1040.25 299.701 1040.2 299.701C1040.16 299.701 1040.01 300.1 1039.76 300.896C1039.53 301.682 1039.06 302.988 1038.36 304.816C1037.65 306.645 1037.3 307.688 1037.3 307.945V308.033C1037.3 308.186 1037.49 308.262 1037.86 308.262ZM1038.53 287.027H1039.01C1039.7 287.027 1040.6 287.303 1041.7 287.854C1042.8 288.404 1043.61 288.68 1044.14 288.68C1044.68 288.68 1045.18 288.445 1045.65 287.977C1046.13 287.496 1046.54 287.256 1046.88 287.256C1047.53 287.256 1047.85 287.508 1047.85 288.012V288.188C1047.85 288.996 1047.35 289.904 1046.34 290.912C1045.65 291.604 1044.85 291.949 1043.96 291.949H1043.81L1043.63 291.932C1042.96 291.932 1042.07 291.65 1040.94 291.088C1039.82 290.525 1039.01 290.244 1038.52 290.244C1038.03 290.244 1037.52 290.49 1036.99 290.982C1036.46 291.475 1036.09 291.721 1035.88 291.721C1035.14 291.721 1034.77 291.416 1034.77 290.807C1034.77 290.08 1035.19 289.271 1036.02 288.381C1036.85 287.479 1037.69 287.027 1038.53 287.027ZM1039.34 294.604C1039.82 294.381 1040.44 294.27 1041.2 294.27C1041.98 294.27 1042.61 294.492 1043.1 294.938C1043.6 295.371 1044.08 296.004 1044.56 296.836C1045.05 297.668 1045.64 299.133 1046.32 301.23C1047.01 303.328 1047.48 304.699 1047.73 305.344L1050.93 313.869C1051.29 314.631 1051.83 315.287 1052.56 315.838C1053.3 316.377 1053.67 316.834 1053.67 317.209C1053.67 317.584 1053.44 317.83 1053 317.947C1052.28 318.135 1050.46 318.229 1047.52 318.229L1046.99 318.246C1046.62 318.258 1046.26 318.264 1045.9 318.264C1044.68 318.264 1044.07 317.982 1044.07 317.42C1044.07 317.186 1044.23 316.805 1044.54 316.277C1044.86 315.738 1045.02 315.322 1045.02 315.029C1045.02 314.244 1044.87 313.418 1044.56 312.551C1044.27 311.684 1043.99 311.162 1043.72 310.986C1043.45 310.799 1042.28 310.705 1040.2 310.705C1038.14 310.705 1036.99 310.787 1036.74 310.951C1036.49 311.104 1036.22 311.508 1035.93 312.164C1035.64 312.809 1035.49 313.395 1035.49 313.922C1035.49 314.449 1035.73 315.129 1036.21 315.961C1036.7 316.781 1036.95 317.332 1036.95 317.613C1036.95 318.059 1036.22 318.281 1034.77 318.281H1034.24L1033.68 318.264H1033.15C1031.24 318.264 1030.07 318.199 1029.62 318.07C1029.18 317.953 1028.95 317.701 1028.95 317.314C1028.95 316.928 1029.36 316.4 1030.18 315.732C1031 315.064 1031.62 314.262 1032.03 313.324C1032.15 313.066 1032.73 311.561 1033.77 308.807C1034.81 306.053 1035.5 304.23 1035.84 303.34C1036.18 302.449 1036.56 301.166 1036.99 299.49C1037.41 297.814 1037.79 296.637 1038.13 295.957C1038.47 295.277 1038.87 294.826 1039.34 294.604ZM1074.88 306.768V305.59C1074.88 304.395 1074.72 303.141 1074.41 301.828C1073.78 299.215 1072.66 297.404 1071.07 296.396C1070.35 295.951 1069.53 295.729 1068.61 295.729H1068.34C1067.58 295.729 1066.8 295.957 1066.01 296.414C1064.46 297.305 1063.4 298.875 1062.82 301.125C1062.46 302.531 1062.28 303.932 1062.28 305.326V305.924C1062.28 307.295 1062.45 308.648 1062.81 309.984C1063.51 312.621 1064.72 314.449 1066.43 315.469C1067.13 315.891 1067.86 316.102 1068.61 316.102H1069.13C1069.93 316.102 1070.7 315.873 1071.44 315.416C1072.18 314.947 1072.78 314.32 1073.25 313.535C1074.34 311.719 1074.88 309.463 1074.88 306.768ZM1057.22 306.012C1057.22 304.137 1057.5 302.402 1058.08 300.809C1059.19 297.691 1061.14 295.529 1063.93 294.322C1065.55 293.619 1067.2 293.268 1068.89 293.268L1069.31 293.285H1069.71C1071.07 293.285 1072.49 293.596 1073.95 294.217C1075.42 294.838 1076.66 295.723 1077.7 296.871C1078.74 298.008 1079.53 299.338 1080.07 300.861C1080.61 302.373 1080.88 303.908 1080.88 305.467V305.871C1080.88 307.641 1080.58 309.334 1079.98 310.951C1079.39 312.557 1078.54 313.934 1077.43 315.082C1075.18 317.414 1072.2 318.586 1068.48 318.598C1066.96 318.598 1065.49 318.311 1064.07 317.736C1062.67 317.15 1061.49 316.336 1060.54 315.293C1058.32 312.832 1057.22 309.738 1057.22 306.012Z" fill="#DB2B39"/>
<path d="M142 224H222C230.837 224 238 231.164 238 240C238 248.837 230.837 256 222 256H162C150.954 256 142 247.046 142 236V224Z" fill="#DB2B39"/>
<path d="M142 64.0001V52.0001C142 40.9544 150.954 32.0001 162 32.0001H218C229.046 32.0001 238 40.9544 238 52.0001V64.0001H142Z" fill="#DB2B39"/>
<path d="M98 192C86.9543 192 78 183.046 78 172V116C78 104.954 86.9543 96.0001 98 96.0001H110V192H98Z" fill="#DB2B39"/>
<path d="M110 96.0001V84.0001C110 72.9544 118.954 64.0001 130 64.0001H142V76.0001C142 87.0458 133.046 96.0001 122 96.0001H110Z" fill="#DB2B39"/>
<path d="M254 128C245.163 128 238 120.837 238 112V96.0001H270V112C270 120.837 262.837 128 254 128Z" fill="#DB2B39"/>
<path d="M238 96.0001V64.0001H250C261.046 64.0001 270 72.9544 270 84.0001V96.0001H238Z" fill="#DB2B39"/>
<rect x="238" y="224" width="32" height="32" rx="16" transform="rotate(-90 238 224)" fill="#DB2B39"/>
<path d="M130 224C118.954 224 110 215.046 110 204V192H122C133.046 192 142 200.954 142 212V224H130Z" fill="#DB2B39"/>
<path d="M558 224H638C646.837 224 654 231.164 654 240C654 248.837 646.837 256 638 256H578C566.954 256 558 247.046 558 236V224Z" fill="#DB2B39"/>
<path d="M558 64.0001V52.0001C558 40.9544 566.954 32.0001 578 32.0001H634C645.046 32.0001 654 40.9544 654 52.0001V64.0001H558Z" fill="#DB2B39"/>
<path d="M514 192C502.954 192 494 183.046 494 172V116C494 104.954 502.954 96.0001 514 96.0001H526V192H514Z" fill="#DB2B39"/>
<path d="M526 96.0001V84.0001C526 72.9544 534.954 64.0001 546 64.0001H558V76.0001C558 87.0458 549.046 96.0001 538 96.0001H526Z" fill="#DB2B39"/>
<path d="M670 128C661.163 128 654 120.837 654 112V96.0001H686V112C686 120.837 678.837 128 670 128Z" fill="#DB2B39"/>
<path d="M654 96.0001V64.0001H666C677.046 64.0001 686 72.9544 686 84.0001V96.0001H654Z" fill="#DB2B39"/>
<rect x="654" y="224" width="32" height="32" rx="16" transform="rotate(-90 654 224)" fill="#DB2B39"/>
<path d="M546 224C534.954 224 526 215.046 526 204V192H538C549.046 192 558 200.954 558 212V224H546Z" fill="#DB2B39"/>
<path d="M302 81.0001C302 72.1635 309.163 65.0001 318 65.0001H334V81.0001C334 89.8366 326.837 97.0001 318 97.0001C309.163 97.0001 302 89.8366 302 81.0001Z" fill="#DB2B39"/>
<path d="M334 53.0001C334 41.9544 342.954 33.0001 354 33.0001H366V65.0001H334V53.0001Z" fill="#DB2B39"/>
<rect width="32" height="32" transform="translate(366 33.0001)" fill="#DB2B39"/>
<path d="M398 33.0001H410C421.046 33.0001 430 41.9544 430 53.0001V65.0001H398V33.0001Z" fill="#DB2B39"/>
<rect width="32" height="32" transform="translate(366 130)" fill="#DB2B39"/>
<rect width="32" height="32" transform="translate(398 130)" fill="#DB2B39"/>
<path d="M430 65.0001H442C453.046 65.0001 462 73.9544 462 85.0001V97.0001H430V65.0001Z" fill="#DB2B39"/>
<rect width="32" height="32" transform="translate(430 97.0001)" fill="#DB2B39"/>
<rect width="32" height="32" transform="translate(430 161)" fill="#DB2B39"/>
<rect x="462" y="225" width="32" height="32" rx="16" fill="#DB2B39"/>
<path d="M398 225H414C422.837 225 430 232.164 430 241C430 249.837 422.837 257 414 257H398V225Z" fill="#DB2B39"/>
<rect width="32" height="32" transform="translate(366 225)" fill="#DB2B39"/>
<path d="M334 225H366V257H354C342.954 257 334 248.046 334 237V225Z" fill="#DB2B39"/>
<path d="M302 193H334V209C334 217.837 326.837 225 318 225C309.163 225 302 217.837 302 209V193Z" fill="#DB2B39"/>
<path d="M334 150C334 138.954 342.954 130 354 130H366V162H334V150Z" fill="#DB2B39"/>
<path d="M302 181C302 169.954 310.954 161 322 161H334V193H302V181Z" fill="#DB2B39"/>
<path d="M430 193H462V205C462 216.046 453.046 225 442 225H430V193Z" fill="#DB2B39"/>
<rect width="32" height="32" transform="translate(430 129)" fill="#DB2B39"/>
<rect x="910" y="32.0001" width="32" height="32" rx="16" fill="#DB2B39"/>
<path d="M942 80.0001C942 71.1635 949.163 64.0001 958 64.0001C966.837 64.0001 974 71.1635 974 80.0001V96.0001H942V80.0001Z" fill="#DB2B39"/>
<path d="M974 52.0001C974 40.9544 982.954 32.0001 994 32.0001H1006V64.0001H974V52.0001Z" fill="#DB2B39"/>
<rect width="32" height="32" transform="translate(1006 32.0001)" fill="#DB2B39"/>
<path d="M1038 32.0001H1050C1061.05 32.0001 1070 40.9544 1070 52.0001V64.0001H1038V32.0001Z" fill="#DB2B39"/>
<path d="M1070 64.0001H1082C1093.05 64.0001 1102 72.9544 1102 84.0001V96.0001H1070V64.0001Z" fill="#DB2B39"/>
<rect width="32" height="32" transform="translate(974 128)" fill="#DB2B39"/>
<rect width="32" height="32" transform="translate(942 96.0001)" fill="#DB2B39"/>
<path d="M910 240C910 231.164 917.163 224 926 224H942V240C942 248.837 934.837 256 926 256C917.163 256 910 248.837 910 240Z" fill="#DB2B39"/>
<path d="M1038 128H1070V140C1070 151.046 1061.05 160 1050 160H1038V128Z" fill="#DB2B39"/>
<path d="M942 192H974V204C974 215.046 965.046 224 954 224H942V192Z" fill="#DB2B39"/>
<rect width="32" height="32" transform="translate(942 128)" fill="#DB2B39"/>
<rect width="32" height="32" transform="translate(942 160)" fill="#DB2B39"/>
<path d="M1070 96.0001H1102V108C1102 119.046 1093.05 128 1082 128H1070V96.0001Z" fill="#DB2B39"/>
<rect width="32" height="32" transform="translate(1006 128)" fill="#DB2B39"/>
<path d="M846 64L766 64C757.163 64 750 56.8366 750 48C750 39.1634 757.163 32 766 32L826 32C837.046 32 846 40.9543 846 52V64Z" fill="#DB2B39"/>
<path d="M846 224V236C846 247.046 837.046 256 826 256H770C758.954 256 750 247.046 750 236V224L846 224Z" fill="#DB2B39"/>
<path d="M890 96C901.046 96 910 104.954 910 116V172C910 183.046 901.046 192 890 192H878V96H890Z" fill="#DB2B39"/>
<path d="M878 192V204C878 215.046 869.046 224 858 224H846V212C846 200.954 854.954 192 866 192H878Z" fill="#DB2B39"/>
<path d="M734 160C742.837 160 750 167.164 750 176V192H718V176C718 167.164 725.163 160 734 160Z" fill="#DB2B39"/>
<path d="M750 192V224H738C726.954 224 718 215.046 718 204V192H750Z" fill="#DB2B39"/>
<rect x="750" y="64" width="32" height="32" rx="16" transform="rotate(90 750 64)" fill="#DB2B39"/>
<path d="M858 64C869.046 64 878 72.9543 878 84V96H866C854.954 96 846 87.0457 846 76V64H858Z" fill="#DB2B39"/>
</svg>
